<?xml version="1.0" encoding="utf-8"?>
<!-- Generator: Adobe Illustrator 21.0.2, SVG Export Plug-In . SVG Version: 6.00 Build 0)  -->
<svg version="1.1" id="Layer_1" xmlns="http://www.w3.org/2000/svg" xmlns:xlink="http://www.w3.org/1999/xlink" x="0px" y="0px"
	 viewBox="0 0 250 29.051" style="enable-background:new 0 0 250 29.051;" xml:space="preserve">
<style type="text/css">
	.st0{fill:#99CCEE;}
	.st1{fill:#4A8BBC;}
	.st2{fill:#569C3C;}
	.st3{fill:#F173C0;}
	.st4{fill:#A82593;}
	.st5{fill:#7A3CA3;}
	.st6{fill:#FFFFFF;}
	.st7{fill:#9BCBEA;}
	.st8{fill:#9ACAEA;}
	.st9{fill:#8E9090;}
</style>
<g>
	<path class="st0" d="M205.332,4.27C202.513,1.423,199.095,0,195.076,0c-4.047,0-7.466,1.423-10.256,4.27
		c-1.252,1.252-2.228,2.615-2.93,4.088c-0.708-1.473-1.694-2.836-2.958-4.088C176.114,1.423,172.696,0,168.678,0
		c-4.047,0-7.466,1.423-10.256,4.27c-2.846,2.847-4.27,6.266-4.27,10.256c0,4.018,1.423,7.437,4.27,10.256
		c2.818,2.847,6.237,4.27,10.256,4.27c4.018,0,7.436-1.423,10.256-4.27c1.267-1.23,2.254-2.583,2.963-4.057
		c0.701,1.468,1.676,2.82,2.925,4.057c2.818,2.847,6.237,4.27,10.256,4.27s7.436-1.423,10.256-4.27
		c2.874-2.79,4.312-6.209,4.312-10.256C209.644,10.535,208.206,7.116,205.332,4.27z M175.5,21.39
		c-1.898,1.87-4.172,2.805-6.823,2.805c-2.652,0-4.94-0.935-6.865-2.805c-1.87-1.926-2.805-4.213-2.805-6.865
		c0-2.651,0.935-4.925,2.805-6.823c1.926-1.898,4.213-2.846,6.865-2.846c2.651,0,4.925,0.949,6.823,2.846
		c1.898,1.899,2.847,4.172,2.847,6.823C178.347,17.177,177.398,19.465,175.5,21.39z M201.9,21.39
		c-1.898,1.87-4.172,2.805-6.823,2.805c-2.652,0-4.94-0.935-6.865-2.805c-1.87-1.926-2.805-4.213-2.805-6.865
		c0-2.651,0.935-4.925,2.805-6.823c1.926-1.898,4.213-2.846,6.865-2.846c2.651,0,4.925,0.949,6.823,2.846
		c1.898,1.899,2.847,4.172,2.847,6.823C204.746,17.177,203.797,19.465,201.9,21.39z"/>
	<path class="st1" d="M215.987,4.856h-11.975V0h21.896l-13.098,24.195h12.276v4.855h-22.239L215.987,4.856z"/>
	<path class="st0" d="M101.279,4.271C98.465,1.43,95.054,0.01,91.043,0.01c-4.039,0-7.451,1.421-10.236,4.261
		c-1.231,1.231-2.194,2.569-2.892,4.014V0.01L63.376,14.507L48.879,0.01v8.192c-0.701-1.413-1.658-2.724-2.876-3.931
		C43.188,1.43,39.777,0.01,35.766,0.01c-4.039,0-7.451,1.421-10.236,4.261c-1.21,1.21-2.161,2.526-2.855,3.943
		c-0.728-1.469-1.664-2.777-2.809-3.922c-1.323-1.323-2.862-2.367-4.617-3.134C13.495,0.393,11.629,0.01,9.651,0.01H0v28.995h9.651
		c1.978,0,3.85-0.382,5.619-1.149c1.768-0.766,3.307-1.81,4.617-3.134c1.131-1.142,2.057-2.447,2.783-3.911
		c0.695,1.42,1.647,2.731,2.86,3.933c2.813,2.841,6.225,4.261,10.236,4.261c4.011,0,7.422-1.421,10.236-4.261
		c1.218-1.183,2.175-2.48,2.876-3.89v8.151h4.805V11.666l9.693,9.693l9.651-9.693v17.338h4.888V20.75
		c0.698,1.443,1.661,2.775,2.892,3.994c2.813,2.841,6.225,4.261,10.236,4.261c4.011,0,7.422-1.421,10.236-4.261
		c2.869-2.785,4.303-6.197,4.303-10.236C105.582,10.524,104.147,7.112,101.279,4.271z M18.55,18.225
		c-0.502,1.17-1.191,2.201-2.068,3.092c-0.877,0.892-1.901,1.588-3.071,2.089c-1.17,0.501-2.423,0.752-3.76,0.752H4.805V4.856h4.847
		c1.309,0,2.549,0.251,3.719,0.752c1.17,0.501,2.2,1.198,3.091,2.089c0.891,0.892,1.588,1.922,2.089,3.092
		c0.501,1.17,0.752,2.409,0.752,3.718C19.302,15.816,19.052,17.055,18.55,18.225z M42.576,21.359
		c-1.894,1.867-4.164,2.799-6.81,2.799c-2.647,0-4.93-0.933-6.852-2.799c-1.866-1.922-2.799-4.205-2.799-6.852
		c0-2.645,0.933-4.915,2.799-6.81c1.922-1.894,4.205-2.841,6.852-2.841c2.646,0,4.915,0.947,6.81,2.841
		c1.894,1.894,2.841,4.165,2.841,6.81C45.417,17.154,44.47,19.437,42.576,21.359z M97.853,21.359
		c-1.894,1.867-4.164,2.799-6.81,2.799c-2.647,0-4.93-0.933-6.852-2.799c-1.866-1.922-2.799-4.205-2.799-6.852
		c0-2.645,0.933-4.915,2.799-6.81c1.922-1.894,4.205-2.841,6.852-2.841c2.646,0,4.916,0.947,6.81,2.841
		c1.894,1.894,2.841,4.165,2.841,6.81C100.694,17.154,99.747,19.437,97.853,21.359z"/>
	<path class="st2" d="M242.173,24.195h-13.353l-2.47,4.855h-5.4L235.475,0L250,29.051h-5.4L242.173,24.195z M231.205,19.381h8.54
		l-4.27-8.54L231.205,19.381z"/>
	<path class="st3" d="M142.223,0h4.814v24.195h12.722v4.855h-17.536V0z"/>
	<path class="st4" d="M136.028,24.195h-13.353l-2.469,4.855h-5.4L129.331,0l14.525,29.051h-5.4L136.028,24.195z M125.061,19.381
		h8.539l-4.269-8.54L125.061,19.381z"/>
	<path class="st5" d="M109.004,19.381v9.67h-4.814V0h11.351c2.651,0,4.925,0.949,6.823,2.846c1.898,1.898,2.847,4.186,2.847,6.865
		c0,2.652-0.949,4.94-2.847,6.865c-1.898,1.87-4.172,2.805-6.823,2.805H109.004z M109.004,4.856v9.669h6.537
		c1.311,0,2.441-0.474,3.391-1.423c0.948-0.948,1.423-2.078,1.423-3.391c0-1.339-0.475-2.484-1.423-3.432
		c-0.949-0.949-2.08-1.423-3.391-1.423H109.004z"/>
</g>
</svg>
